<mxfile host="app.diagrams.net" modified="2023-03-09T03:48:39.434Z" agent="5.0 (Macintosh; Intel Mac OS X 10_15_7) AppleWebKit/605.1.15 (KHTML, like Gecko) Version/15.3 Safari/605.1.15" etag="VZ1RDcr4T6ElmFH_eEpg" version="21.0.2" type="github">
  <diagram id="C5RBs43oDa-KdzZeNtuy" name="Page-1">
    <mxGraphModel dx="1021" dy="697" grid="1" gridSize="10" guides="1" tooltips="1" connect="1" arrows="1" fold="1" page="1" pageScale="1" pageWidth="827" pageHeight="1169" math="0" shadow="0">
      <root>
        <mxCell id="WIyWlLk6GJQsqaUBKTNV-0" />
        <mxCell id="WIyWlLk6GJQsqaUBKTNV-1" parent="WIyWlLk6GJQsqaUBKTNV-0" />
        <mxCell id="WIyWlLk6GJQsqaUBKTNV-2" value="" style="rounded=0;html=1;jettySize=auto;orthogonalLoop=1;fontSize=11;endArrow=block;endFill=0;endSize=8;strokeWidth=1;shadow=0;labelBackgroundColor=none;edgeStyle=orthogonalEdgeStyle;" parent="WIyWlLk6GJQsqaUBKTNV-1" source="WIyWlLk6GJQsqaUBKTNV-3" target="WIyWlLk6GJQsqaUBKTNV-6" edge="1">
          <mxGeometry relative="1" as="geometry" />
        </mxCell>
        <mxCell id="WIyWlLk6GJQsqaUBKTNV-3" value="Lamp doesn&#39;t work" style="rounded=1;whiteSpace=wrap;html=1;fontSize=12;glass=0;strokeWidth=1;shadow=0;" parent="WIyWlLk6GJQsqaUBKTNV-1" vertex="1">
          <mxGeometry x="160" y="80" width="120" height="40" as="geometry" />
        </mxCell>
        <mxCell id="WIyWlLk6GJQsqaUBKTNV-4" value="Yes" style="rounded=0;html=1;jettySize=auto;orthogonalLoop=1;fontSize=11;endArrow=block;endFill=0;endSize=8;strokeWidth=1;shadow=0;labelBackgroundColor=none;edgeStyle=orthogonalEdgeStyle;" parent="WIyWlLk6GJQsqaUBKTNV-1" source="WIyWlLk6GJQsqaUBKTNV-6" target="WIyWlLk6GJQsqaUBKTNV-10" edge="1">
          <mxGeometry y="20" relative="1" as="geometry">
            <mxPoint as="offset" />
          </mxGeometry>
        </mxCell>
        <mxCell id="WIyWlLk6GJQsqaUBKTNV-5" value="No" style="edgeStyle=orthogonalEdgeStyle;rounded=0;html=1;jettySize=auto;orthogonalLoop=1;fontSize=11;endArrow=block;endFill=0;endSize=8;strokeWidth=1;shadow=0;labelBackgroundColor=none;" parent="WIyWlLk6GJQsqaUBKTNV-1" source="WIyWlLk6GJQsqaUBKTNV-6" target="WIyWlLk6GJQsqaUBKTNV-7" edge="1">
          <mxGeometry y="10" relative="1" as="geometry">
            <mxPoint as="offset" />
          </mxGeometry>
        </mxCell>
        <mxCell id="WIyWlLk6GJQsqaUBKTNV-6" value="Lamp&lt;br&gt;plugged in?" style="rhombus;whiteSpace=wrap;html=1;shadow=0;fontFamily=Helvetica;fontSize=12;align=center;strokeWidth=1;spacing=6;spacingTop=-4;" parent="WIyWlLk6GJQsqaUBKTNV-1" vertex="1">
          <mxGeometry x="170" y="170" width="100" height="80" as="geometry" />
        </mxCell>
        <mxCell id="WIyWlLk6GJQsqaUBKTNV-7" value="Plug in lamp" style="rounded=1;whiteSpace=wrap;html=1;fontSize=12;glass=0;strokeWidth=1;shadow=0;" parent="WIyWlLk6GJQsqaUBKTNV-1" vertex="1">
          <mxGeometry x="320" y="190" width="120" height="40" as="geometry" />
        </mxCell>
        <mxCell id="WIyWlLk6GJQsqaUBKTNV-8" value="No" style="rounded=0;html=1;jettySize=auto;orthogonalLoop=1;fontSize=11;endArrow=block;endFill=0;endSize=8;strokeWidth=1;shadow=0;labelBackgroundColor=none;edgeStyle=orthogonalEdgeStyle;" parent="WIyWlLk6GJQsqaUBKTNV-1" source="WIyWlLk6GJQsqaUBKTNV-10" target="WIyWlLk6GJQsqaUBKTNV-11" edge="1">
          <mxGeometry x="0.3333" y="20" relative="1" as="geometry">
            <mxPoint as="offset" />
          </mxGeometry>
        </mxCell>
        <mxCell id="WIyWlLk6GJQsqaUBKTNV-9" value="Yes" style="edgeStyle=orthogonalEdgeStyle;rounded=0;html=1;jettySize=auto;orthogonalLoop=1;fontSize=11;endArrow=block;endFill=0;endSize=8;strokeWidth=1;shadow=0;labelBackgroundColor=none;" parent="WIyWlLk6GJQsqaUBKTNV-1" source="WIyWlLk6GJQsqaUBKTNV-10" target="WIyWlLk6GJQsqaUBKTNV-12" edge="1">
          <mxGeometry y="10" relative="1" as="geometry">
            <mxPoint as="offset" />
          </mxGeometry>
        </mxCell>
        <mxCell id="WIyWlLk6GJQsqaUBKTNV-10" value="Bulb&lt;br&gt;burned out?" style="rhombus;whiteSpace=wrap;html=1;shadow=0;fontFamily=Helvetica;fontSize=12;align=center;strokeWidth=1;spacing=6;spacingTop=-4;" parent="WIyWlLk6GJQsqaUBKTNV-1" vertex="1">
          <mxGeometry x="170" y="290" width="100" height="80" as="geometry" />
        </mxCell>
        <mxCell id="WIyWlLk6GJQsqaUBKTNV-11" value="Repair Lamp" style="rounded=1;whiteSpace=wrap;html=1;fontSize=12;glass=0;strokeWidth=1;shadow=0;" parent="WIyWlLk6GJQsqaUBKTNV-1" vertex="1">
          <mxGeometry x="160" y="430" width="120" height="40" as="geometry" />
        </mxCell>
        <mxCell id="WIyWlLk6GJQsqaUBKTNV-12" value="Replace Bulb" style="rounded=1;whiteSpace=wrap;html=1;fontSize=12;glass=0;strokeWidth=1;shadow=0;" parent="WIyWlLk6GJQsqaUBKTNV-1" vertex="1">
          <mxGeometry x="320" y="310" width="120" height="40" as="geometry" />
        </mxCell>
        <mxCell id="qEP1fspGBnOH7kWeN9nW-0" value="" style="shape=cylinder3;whiteSpace=wrap;html=1;boundedLbl=1;backgroundOutline=1;size=15;hachureGap=4;fontFamily=Architects Daughter;fontSource=https%3A%2F%2Ffonts.googleapis.com%2Fcss%3Ffamily%3DArchitects%2BDaughter;fontSize=20;rotation=90;" parent="WIyWlLk6GJQsqaUBKTNV-1" vertex="1">
          <mxGeometry x="80" y="570" width="60" height="80" as="geometry" />
        </mxCell>
        <mxCell id="qEP1fspGBnOH7kWeN9nW-4" value="" style="edgeStyle=orthogonalEdgeStyle;rounded=0;sketch=0;hachureGap=4;jiggle=2;curveFitting=1;orthogonalLoop=1;jettySize=auto;html=1;fontFamily=Architects Daughter;fontSource=https%3A%2F%2Ffonts.googleapis.com%2Fcss%3Ffamily%3DArchitects%2BDaughter;fontSize=16;" parent="WIyWlLk6GJQsqaUBKTNV-1" source="qEP1fspGBnOH7kWeN9nW-1" target="qEP1fspGBnOH7kWeN9nW-3" edge="1">
          <mxGeometry relative="1" as="geometry" />
        </mxCell>
        <mxCell id="qEP1fspGBnOH7kWeN9nW-1" value="source&lt;br&gt;db" style="text;html=1;strokeColor=none;fillColor=none;align=center;verticalAlign=middle;whiteSpace=wrap;rounded=0;fontSize=20;fontFamily=Architects Daughter;" parent="WIyWlLk6GJQsqaUBKTNV-1" vertex="1">
          <mxGeometry x="80" y="595" width="60" height="30" as="geometry" />
        </mxCell>
        <mxCell id="qEP1fspGBnOH7kWeN9nW-2" style="edgeStyle=orthogonalEdgeStyle;rounded=0;hachureGap=4;orthogonalLoop=1;jettySize=auto;html=1;exitX=0.5;exitY=1;exitDx=0;exitDy=0;fontFamily=Architects Daughter;fontSource=https%3A%2F%2Ffonts.googleapis.com%2Fcss%3Ffamily%3DArchitects%2BDaughter;fontSize=16;" parent="WIyWlLk6GJQsqaUBKTNV-1" source="qEP1fspGBnOH7kWeN9nW-1" target="qEP1fspGBnOH7kWeN9nW-1" edge="1">
          <mxGeometry relative="1" as="geometry" />
        </mxCell>
        <mxCell id="qEP1fspGBnOH7kWeN9nW-6" value="" style="edgeStyle=orthogonalEdgeStyle;rounded=0;sketch=0;hachureGap=4;jiggle=2;curveFitting=1;orthogonalLoop=1;jettySize=auto;html=1;fontFamily=Architects Daughter;fontSource=https%3A%2F%2Ffonts.googleapis.com%2Fcss%3Ffamily%3DArchitects%2BDaughter;fontSize=16;" parent="WIyWlLk6GJQsqaUBKTNV-1" source="qEP1fspGBnOH7kWeN9nW-3" target="qEP1fspGBnOH7kWeN9nW-5" edge="1">
          <mxGeometry relative="1" as="geometry" />
        </mxCell>
        <mxCell id="qEP1fspGBnOH7kWeN9nW-3" value="Flink CDC" style="rounded=0;whiteSpace=wrap;html=1;sketch=0;hachureGap=4;jiggle=2;curveFitting=1;fontFamily=Architects Daughter;fontSource=https%3A%2F%2Ffonts.googleapis.com%2Fcss%3Ffamily%3DArchitects%2BDaughter;fontSize=20;" parent="WIyWlLk6GJQsqaUBKTNV-1" vertex="1">
          <mxGeometry x="192" y="580" width="110" height="60" as="geometry" />
        </mxCell>
        <mxCell id="qEP1fspGBnOH7kWeN9nW-5" value="" style="shape=cylinder3;whiteSpace=wrap;html=1;boundedLbl=1;backgroundOutline=1;size=15;sketch=0;hachureGap=4;jiggle=2;curveFitting=1;fontFamily=Architects Daughter;fontSource=https%3A%2F%2Ffonts.googleapis.com%2Fcss%3Ffamily%3DArchitects%2BDaughter;fontSize=20;rotation=90;" parent="WIyWlLk6GJQsqaUBKTNV-1" vertex="1">
          <mxGeometry x="364" y="570" width="60" height="80" as="geometry" />
        </mxCell>
        <mxCell id="qEP1fspGBnOH7kWeN9nW-9" style="edgeStyle=orthogonalEdgeStyle;rounded=0;sketch=0;hachureGap=4;jiggle=2;curveFitting=1;orthogonalLoop=1;jettySize=auto;html=1;fontFamily=Architects Daughter;fontSource=https%3A%2F%2Ffonts.googleapis.com%2Fcss%3Ffamily%3DArchitects%2BDaughter;fontSize=16;" parent="WIyWlLk6GJQsqaUBKTNV-1" source="qEP1fspGBnOH7kWeN9nW-7" target="qEP1fspGBnOH7kWeN9nW-8" edge="1">
          <mxGeometry relative="1" as="geometry" />
        </mxCell>
        <mxCell id="qEP1fspGBnOH7kWeN9nW-7" value="Kafka" style="text;html=1;strokeColor=none;fillColor=none;align=center;verticalAlign=middle;whiteSpace=wrap;rounded=0;fontSize=20;fontFamily=Architects Daughter;" parent="WIyWlLk6GJQsqaUBKTNV-1" vertex="1">
          <mxGeometry x="364" y="595" width="60" height="30" as="geometry" />
        </mxCell>
        <mxCell id="qEP1fspGBnOH7kWeN9nW-11" value="" style="edgeStyle=orthogonalEdgeStyle;rounded=0;sketch=0;hachureGap=4;jiggle=2;curveFitting=1;orthogonalLoop=1;jettySize=auto;html=1;fontFamily=Architects Daughter;fontSource=https%3A%2F%2Ffonts.googleapis.com%2Fcss%3Ffamily%3DArchitects%2BDaughter;fontSize=16;" parent="WIyWlLk6GJQsqaUBKTNV-1" source="qEP1fspGBnOH7kWeN9nW-8" target="qEP1fspGBnOH7kWeN9nW-10" edge="1">
          <mxGeometry relative="1" as="geometry" />
        </mxCell>
        <mxCell id="qEP1fspGBnOH7kWeN9nW-8" value="驱动表数据" style="rounded=0;whiteSpace=wrap;html=1;sketch=0;hachureGap=4;jiggle=2;curveFitting=1;fontFamily=Architects Daughter;fontSource=https%3A%2F%2Ffonts.googleapis.com%2Fcss%3Ffamily%3DArchitects%2BDaughter;fontSize=20;" parent="WIyWlLk6GJQsqaUBKTNV-1" vertex="1">
          <mxGeometry x="480" y="580" width="120" height="60" as="geometry" />
        </mxCell>
        <mxCell id="qEP1fspGBnOH7kWeN9nW-15" value="" style="edgeStyle=orthogonalEdgeStyle;rounded=0;sketch=0;hachureGap=4;jiggle=2;curveFitting=1;orthogonalLoop=1;jettySize=auto;html=1;fontFamily=Architects Daughter;fontSource=https%3A%2F%2Ffonts.googleapis.com%2Fcss%3Ffamily%3DArchitects%2BDaughter;fontSize=16;" parent="WIyWlLk6GJQsqaUBKTNV-1" source="qEP1fspGBnOH7kWeN9nW-10" target="qEP1fspGBnOH7kWeN9nW-12" edge="1">
          <mxGeometry relative="1" as="geometry" />
        </mxCell>
        <mxCell id="qEP1fspGBnOH7kWeN9nW-10" value="lookup source&lt;br&gt;db" style="rounded=0;whiteSpace=wrap;html=1;sketch=0;hachureGap=4;jiggle=2;curveFitting=1;fontFamily=Architects Daughter;fontSource=https%3A%2F%2Ffonts.googleapis.com%2Fcss%3Ffamily%3DArchitects%2BDaughter;fontSize=20;" parent="WIyWlLk6GJQsqaUBKTNV-1" vertex="1">
          <mxGeometry x="480" y="680" width="120" height="60" as="geometry" />
        </mxCell>
        <mxCell id="qEP1fspGBnOH7kWeN9nW-14" value="" style="edgeStyle=orthogonalEdgeStyle;rounded=0;sketch=0;hachureGap=4;jiggle=2;curveFitting=1;orthogonalLoop=1;jettySize=auto;html=1;fontFamily=Architects Daughter;fontSource=https%3A%2F%2Ffonts.googleapis.com%2Fcss%3Ffamily%3DArchitects%2BDaughter;fontSize=16;" parent="WIyWlLk6GJQsqaUBKTNV-1" source="qEP1fspGBnOH7kWeN9nW-12" target="qEP1fspGBnOH7kWeN9nW-13" edge="1">
          <mxGeometry relative="1" as="geometry" />
        </mxCell>
        <mxCell id="qEP1fspGBnOH7kWeN9nW-18" value="Y" style="edgeLabel;html=1;align=center;verticalAlign=middle;resizable=0;points=[];fontSize=20;fontFamily=Architects Daughter;" parent="qEP1fspGBnOH7kWeN9nW-14" vertex="1" connectable="0">
          <mxGeometry x="-0.32" y="-3" relative="1" as="geometry">
            <mxPoint as="offset" />
          </mxGeometry>
        </mxCell>
        <mxCell id="qEP1fspGBnOH7kWeN9nW-17" value="" style="edgeStyle=orthogonalEdgeStyle;rounded=0;sketch=0;hachureGap=4;jiggle=2;curveFitting=1;orthogonalLoop=1;jettySize=auto;html=1;fontFamily=Architects Daughter;fontSource=https%3A%2F%2Ffonts.googleapis.com%2Fcss%3Ffamily%3DArchitects%2BDaughter;fontSize=16;" parent="WIyWlLk6GJQsqaUBKTNV-1" source="qEP1fspGBnOH7kWeN9nW-12" target="qEP1fspGBnOH7kWeN9nW-16" edge="1">
          <mxGeometry relative="1" as="geometry" />
        </mxCell>
        <mxCell id="qEP1fspGBnOH7kWeN9nW-19" value="N" style="edgeLabel;html=1;align=center;verticalAlign=middle;resizable=0;points=[];fontSize=20;fontFamily=Architects Daughter;" parent="qEP1fspGBnOH7kWeN9nW-17" vertex="1" connectable="0">
          <mxGeometry x="0.24" y="3" relative="1" as="geometry">
            <mxPoint as="offset" />
          </mxGeometry>
        </mxCell>
        <mxCell id="qEP1fspGBnOH7kWeN9nW-12" value="exist?" style="rhombus;whiteSpace=wrap;html=1;sketch=0;hachureGap=4;jiggle=2;curveFitting=1;fontFamily=Architects Daughter;fontSource=https%3A%2F%2Ffonts.googleapis.com%2Fcss%3Ffamily%3DArchitects%2BDaughter;fontSize=20;" parent="WIyWlLk6GJQsqaUBKTNV-1" vertex="1">
          <mxGeometry x="500" y="770" width="80" height="70" as="geometry" />
        </mxCell>
        <mxCell id="qEP1fspGBnOH7kWeN9nW-21" value="" style="edgeStyle=orthogonalEdgeStyle;rounded=0;sketch=0;hachureGap=4;jiggle=2;curveFitting=1;orthogonalLoop=1;jettySize=auto;html=1;fontFamily=Architects Daughter;fontSource=https%3A%2F%2Ffonts.googleapis.com%2Fcss%3Ffamily%3DArchitects%2BDaughter;fontSize=16;" parent="WIyWlLk6GJQsqaUBKTNV-1" source="qEP1fspGBnOH7kWeN9nW-13" target="qEP1fspGBnOH7kWeN9nW-20" edge="1">
          <mxGeometry relative="1" as="geometry" />
        </mxCell>
        <mxCell id="qEP1fspGBnOH7kWeN9nW-13" value="combine/collect record" style="whiteSpace=wrap;html=1;fontSize=20;fontFamily=Architects Daughter;sketch=0;hachureGap=4;jiggle=2;curveFitting=1;fontSource=https%3A%2F%2Ffonts.googleapis.com%2Fcss%3Ffamily%3DArchitects%2BDaughter;" parent="WIyWlLk6GJQsqaUBKTNV-1" vertex="1">
          <mxGeometry x="630" y="775" width="120" height="60" as="geometry" />
        </mxCell>
        <mxCell id="qEP1fspGBnOH7kWeN9nW-16" value="skip record" style="whiteSpace=wrap;html=1;fontSize=20;fontFamily=Architects Daughter;sketch=0;hachureGap=4;jiggle=2;curveFitting=1;fontSource=https%3A%2F%2Ffonts.googleapis.com%2Fcss%3Ffamily%3DArchitects%2BDaughter;" parent="WIyWlLk6GJQsqaUBKTNV-1" vertex="1">
          <mxGeometry x="480" y="890" width="120" height="60" as="geometry" />
        </mxCell>
        <mxCell id="qEP1fspGBnOH7kWeN9nW-20" value="sink db" style="whiteSpace=wrap;html=1;fontSize=20;fontFamily=Architects Daughter;sketch=0;hachureGap=4;jiggle=2;curveFitting=1;fontSource=https%3A%2F%2Ffonts.googleapis.com%2Fcss%3Ffamily%3DArchitects%2BDaughter;" parent="WIyWlLk6GJQsqaUBKTNV-1" vertex="1">
          <mxGeometry x="810" y="775" width="120" height="60" as="geometry" />
        </mxCell>
        <mxCell id="qEP1fspGBnOH7kWeN9nW-22" value="" style="edgeStyle=orthogonalEdgeStyle;rounded=0;sketch=0;hachureGap=4;jiggle=2;curveFitting=1;orthogonalLoop=1;jettySize=auto;html=1;fontFamily=Architects Daughter;fontSource=https%3A%2F%2Ffonts.googleapis.com%2Fcss%3Ffamily%3DArchitects%2BDaughter;fontSize=16;" parent="WIyWlLk6GJQsqaUBKTNV-1" source="qEP1fspGBnOH7kWeN9nW-23" target="qEP1fspGBnOH7kWeN9nW-28" edge="1">
          <mxGeometry relative="1" as="geometry" />
        </mxCell>
        <mxCell id="qEP1fspGBnOH7kWeN9nW-23" value="lookup source&lt;br&gt;db" style="rounded=0;whiteSpace=wrap;html=1;sketch=0;hachureGap=4;jiggle=2;curveFitting=1;fontFamily=Architects Daughter;fontSource=https%3A%2F%2Ffonts.googleapis.com%2Fcss%3Ffamily%3DArchitects%2BDaughter;fontSize=20;" parent="WIyWlLk6GJQsqaUBKTNV-1" vertex="1">
          <mxGeometry x="130" y="1110" width="120" height="60" as="geometry" />
        </mxCell>
        <mxCell id="qEP1fspGBnOH7kWeN9nW-24" value="" style="edgeStyle=orthogonalEdgeStyle;rounded=0;sketch=0;hachureGap=4;jiggle=2;curveFitting=1;orthogonalLoop=1;jettySize=auto;html=1;fontFamily=Architects Daughter;fontSource=https%3A%2F%2Ffonts.googleapis.com%2Fcss%3Ffamily%3DArchitects%2BDaughter;fontSize=16;" parent="WIyWlLk6GJQsqaUBKTNV-1" source="qEP1fspGBnOH7kWeN9nW-28" target="qEP1fspGBnOH7kWeN9nW-30" edge="1">
          <mxGeometry relative="1" as="geometry" />
        </mxCell>
        <mxCell id="qEP1fspGBnOH7kWeN9nW-25" value="Y" style="edgeLabel;html=1;align=center;verticalAlign=middle;resizable=0;points=[];fontSize=20;fontFamily=Architects Daughter;" parent="qEP1fspGBnOH7kWeN9nW-24" vertex="1" connectable="0">
          <mxGeometry x="-0.32" y="-3" relative="1" as="geometry">
            <mxPoint as="offset" />
          </mxGeometry>
        </mxCell>
        <mxCell id="qEP1fspGBnOH7kWeN9nW-26" value="" style="edgeStyle=orthogonalEdgeStyle;rounded=0;sketch=0;hachureGap=4;jiggle=2;curveFitting=1;orthogonalLoop=1;jettySize=auto;html=1;fontFamily=Architects Daughter;fontSource=https%3A%2F%2Ffonts.googleapis.com%2Fcss%3Ffamily%3DArchitects%2BDaughter;fontSize=16;" parent="WIyWlLk6GJQsqaUBKTNV-1" source="qEP1fspGBnOH7kWeN9nW-28" target="qEP1fspGBnOH7kWeN9nW-31" edge="1">
          <mxGeometry relative="1" as="geometry" />
        </mxCell>
        <mxCell id="qEP1fspGBnOH7kWeN9nW-27" value="N" style="edgeLabel;html=1;align=center;verticalAlign=middle;resizable=0;points=[];fontSize=20;fontFamily=Architects Daughter;" parent="qEP1fspGBnOH7kWeN9nW-26" vertex="1" connectable="0">
          <mxGeometry x="0.24" y="3" relative="1" as="geometry">
            <mxPoint as="offset" />
          </mxGeometry>
        </mxCell>
        <mxCell id="qEP1fspGBnOH7kWeN9nW-28" value="exist?" style="rhombus;whiteSpace=wrap;html=1;sketch=0;hachureGap=4;jiggle=2;curveFitting=1;fontFamily=Architects Daughter;fontSource=https%3A%2F%2Ffonts.googleapis.com%2Fcss%3Ffamily%3DArchitects%2BDaughter;fontSize=20;" parent="WIyWlLk6GJQsqaUBKTNV-1" vertex="1">
          <mxGeometry x="150" y="1200" width="80" height="70" as="geometry" />
        </mxCell>
        <mxCell id="qEP1fspGBnOH7kWeN9nW-29" value="" style="edgeStyle=orthogonalEdgeStyle;rounded=0;sketch=0;hachureGap=4;jiggle=2;curveFitting=1;orthogonalLoop=1;jettySize=auto;html=1;fontFamily=Architects Daughter;fontSource=https%3A%2F%2Ffonts.googleapis.com%2Fcss%3Ffamily%3DArchitects%2BDaughter;fontSize=16;" parent="WIyWlLk6GJQsqaUBKTNV-1" source="qEP1fspGBnOH7kWeN9nW-30" target="qEP1fspGBnOH7kWeN9nW-32" edge="1">
          <mxGeometry relative="1" as="geometry" />
        </mxCell>
        <mxCell id="qEP1fspGBnOH7kWeN9nW-30" value="combine/collect record" style="whiteSpace=wrap;html=1;fontSize=20;fontFamily=Architects Daughter;sketch=0;hachureGap=4;jiggle=2;curveFitting=1;fontSource=https%3A%2F%2Ffonts.googleapis.com%2Fcss%3Ffamily%3DArchitects%2BDaughter;" parent="WIyWlLk6GJQsqaUBKTNV-1" vertex="1">
          <mxGeometry x="280" y="1205" width="120" height="60" as="geometry" />
        </mxCell>
        <mxCell id="qEP1fspGBnOH7kWeN9nW-36" value="" style="edgeStyle=orthogonalEdgeStyle;rounded=0;sketch=0;hachureGap=4;jiggle=2;curveFitting=1;orthogonalLoop=1;jettySize=auto;html=1;fontFamily=Architects Daughter;fontSource=https%3A%2F%2Ffonts.googleapis.com%2Fcss%3Ffamily%3DArchitects%2BDaughter;fontSize=16;" parent="WIyWlLk6GJQsqaUBKTNV-1" source="qEP1fspGBnOH7kWeN9nW-31" target="qEP1fspGBnOH7kWeN9nW-35" edge="1">
          <mxGeometry relative="1" as="geometry" />
        </mxCell>
        <mxCell id="qEP1fspGBnOH7kWeN9nW-31" value="获取op类型" style="whiteSpace=wrap;html=1;fontSize=20;fontFamily=Architects Daughter;sketch=0;hachureGap=4;jiggle=2;curveFitting=1;fontSource=https%3A%2F%2Ffonts.googleapis.com%2Fcss%3Ffamily%3DArchitects%2BDaughter;" parent="WIyWlLk6GJQsqaUBKTNV-1" vertex="1">
          <mxGeometry x="130" y="1300" width="120" height="60" as="geometry" />
        </mxCell>
        <mxCell id="qEP1fspGBnOH7kWeN9nW-32" value="sink db" style="whiteSpace=wrap;html=1;fontSize=20;fontFamily=Architects Daughter;sketch=0;hachureGap=4;jiggle=2;curveFitting=1;fontSource=https%3A%2F%2Ffonts.googleapis.com%2Fcss%3Ffamily%3DArchitects%2BDaughter;" parent="WIyWlLk6GJQsqaUBKTNV-1" vertex="1">
          <mxGeometry x="460" y="1205" width="120" height="60" as="geometry" />
        </mxCell>
        <mxCell id="qEP1fspGBnOH7kWeN9nW-34" value="" style="edgeStyle=orthogonalEdgeStyle;rounded=0;sketch=0;hachureGap=4;jiggle=2;curveFitting=1;orthogonalLoop=1;jettySize=auto;html=1;fontFamily=Architects Daughter;fontSource=https%3A%2F%2Ffonts.googleapis.com%2Fcss%3Ffamily%3DArchitects%2BDaughter;fontSize=16;" parent="WIyWlLk6GJQsqaUBKTNV-1" source="qEP1fspGBnOH7kWeN9nW-33" target="qEP1fspGBnOH7kWeN9nW-23" edge="1">
          <mxGeometry relative="1" as="geometry" />
        </mxCell>
        <mxCell id="qEP1fspGBnOH7kWeN9nW-33" value="收到驱动表记录" style="rounded=0;whiteSpace=wrap;html=1;sketch=0;hachureGap=4;jiggle=2;curveFitting=1;fontFamily=Architects Daughter;fontSource=https%3A%2F%2Ffonts.googleapis.com%2Fcss%3Ffamily%3DArchitects%2BDaughter;fontSize=20;" parent="WIyWlLk6GJQsqaUBKTNV-1" vertex="1">
          <mxGeometry x="140" y="1000" width="120" height="60" as="geometry" />
        </mxCell>
        <mxCell id="qEP1fspGBnOH7kWeN9nW-38" style="edgeStyle=orthogonalEdgeStyle;rounded=0;sketch=0;hachureGap=4;jiggle=2;curveFitting=1;orthogonalLoop=1;jettySize=auto;html=1;fontFamily=Architects Daughter;fontSource=https%3A%2F%2Ffonts.googleapis.com%2Fcss%3Ffamily%3DArchitects%2BDaughter;fontSize=16;" parent="WIyWlLk6GJQsqaUBKTNV-1" source="qEP1fspGBnOH7kWeN9nW-35" target="qEP1fspGBnOH7kWeN9nW-37" edge="1">
          <mxGeometry relative="1" as="geometry" />
        </mxCell>
        <mxCell id="qEP1fspGBnOH7kWeN9nW-39" value="N" style="edgeLabel;html=1;align=center;verticalAlign=middle;resizable=0;points=[];fontSize=20;fontFamily=Architects Daughter;" parent="qEP1fspGBnOH7kWeN9nW-38" vertex="1" connectable="0">
          <mxGeometry x="-0.4839" relative="1" as="geometry">
            <mxPoint as="offset" />
          </mxGeometry>
        </mxCell>
        <mxCell id="qEP1fspGBnOH7kWeN9nW-41" value="" style="edgeStyle=orthogonalEdgeStyle;rounded=0;sketch=0;hachureGap=4;jiggle=2;curveFitting=1;orthogonalLoop=1;jettySize=auto;html=1;fontFamily=Architects Daughter;fontSource=https%3A%2F%2Ffonts.googleapis.com%2Fcss%3Ffamily%3DArchitects%2BDaughter;fontSize=16;" parent="WIyWlLk6GJQsqaUBKTNV-1" source="qEP1fspGBnOH7kWeN9nW-35" target="qEP1fspGBnOH7kWeN9nW-40" edge="1">
          <mxGeometry relative="1" as="geometry" />
        </mxCell>
        <mxCell id="qEP1fspGBnOH7kWeN9nW-42" value="Y" style="edgeLabel;html=1;align=center;verticalAlign=middle;resizable=0;points=[];fontSize=20;fontFamily=Architects Daughter;" parent="qEP1fspGBnOH7kWeN9nW-41" vertex="1" connectable="0">
          <mxGeometry x="-0.36" y="1" relative="1" as="geometry">
            <mxPoint as="offset" />
          </mxGeometry>
        </mxCell>
        <mxCell id="qEP1fspGBnOH7kWeN9nW-35" value="op=D?" style="rhombus;whiteSpace=wrap;html=1;sketch=0;hachureGap=4;jiggle=2;curveFitting=1;fontFamily=Architects Daughter;fontSource=https%3A%2F%2Ffonts.googleapis.com%2Fcss%3Ffamily%3DArchitects%2BDaughter;fontSize=20;" parent="WIyWlLk6GJQsqaUBKTNV-1" vertex="1">
          <mxGeometry x="150" y="1400" width="80" height="70" as="geometry" />
        </mxCell>
        <mxCell id="qEP1fspGBnOH7kWeN9nW-37" value="将数据写到MDM延迟队列表" style="whiteSpace=wrap;html=1;fontSize=20;fontFamily=Architects Daughter;sketch=0;hachureGap=4;jiggle=2;curveFitting=1;fontSource=https%3A%2F%2Ffonts.googleapis.com%2Fcss%3Ffamily%3DArchitects%2BDaughter;" parent="WIyWlLk6GJQsqaUBKTNV-1" vertex="1">
          <mxGeometry x="296" y="1402.5" width="148" height="65" as="geometry" />
        </mxCell>
        <mxCell id="qEP1fspGBnOH7kWeN9nW-40" value="collect record" style="whiteSpace=wrap;html=1;fontSize=20;fontFamily=Architects Daughter;sketch=0;hachureGap=4;jiggle=2;curveFitting=1;fontSource=https%3A%2F%2Ffonts.googleapis.com%2Fcss%3Ffamily%3DArchitects%2BDaughter;" parent="WIyWlLk6GJQsqaUBKTNV-1" vertex="1">
          <mxGeometry x="130" y="1519" width="120" height="60" as="geometry" />
        </mxCell>
        <mxCell id="qEP1fspGBnOH7kWeN9nW-43" value="micro service&lt;br&gt;delay join job" style="rounded=0;whiteSpace=wrap;html=1;sketch=0;hachureGap=4;jiggle=2;curveFitting=1;fontFamily=Architects Daughter;fontSource=https%3A%2F%2Ffonts.googleapis.com%2Fcss%3Ffamily%3DArchitects%2BDaughter;fontSize=20;" parent="WIyWlLk6GJQsqaUBKTNV-1" vertex="1">
          <mxGeometry x="550" y="1400.75" width="150" height="68.5" as="geometry" />
        </mxCell>
        <mxCell id="qEP1fspGBnOH7kWeN9nW-44" value="" style="shape=flexArrow;endArrow=classic;html=1;rounded=0;sketch=0;hachureGap=4;jiggle=2;curveFitting=1;fontFamily=Architects Daughter;fontSource=https%3A%2F%2Ffonts.googleapis.com%2Fcss%3Ffamily%3DArchitects%2BDaughter;fontSize=16;" parent="WIyWlLk6GJQsqaUBKTNV-1" edge="1">
          <mxGeometry width="50" height="50" relative="1" as="geometry">
            <mxPoint x="460" y="1435.25" as="sourcePoint" />
            <mxPoint x="540" y="1435.25" as="targetPoint" />
          </mxGeometry>
        </mxCell>
        <mxCell id="qEP1fspGBnOH7kWeN9nW-45" value="reco data process flow" style="rounded=0;whiteSpace=wrap;html=1;sketch=0;hachureGap=4;jiggle=2;curveFitting=1;fontFamily=Architects Daughter;fontSource=https%3A%2F%2Ffonts.googleapis.com%2Fcss%3Ffamily%3DArchitects%2BDaughter;fontSize=20;" parent="WIyWlLk6GJQsqaUBKTNV-1" vertex="1">
          <mxGeometry x="820" y="1400.75" width="150" height="68.5" as="geometry" />
        </mxCell>
        <mxCell id="qEP1fspGBnOH7kWeN9nW-47" value="" style="shape=flexArrow;endArrow=classic;html=1;rounded=0;sketch=0;hachureGap=4;jiggle=2;curveFitting=1;fontFamily=Architects Daughter;fontSource=https%3A%2F%2Ffonts.googleapis.com%2Fcss%3Ffamily%3DArchitects%2BDaughter;fontSize=16;" parent="WIyWlLk6GJQsqaUBKTNV-1" edge="1">
          <mxGeometry width="50" height="50" relative="1" as="geometry">
            <mxPoint x="720" y="1434.5" as="sourcePoint" />
            <mxPoint x="800" y="1434.5" as="targetPoint" />
          </mxGeometry>
        </mxCell>
        <mxCell id="qEP1fspGBnOH7kWeN9nW-48" value="超过多少次就不再处理，这块需要加上一些时间，处理结果等信息" style="text;html=1;strokeColor=none;fillColor=none;align=center;verticalAlign=middle;whiteSpace=wrap;rounded=0;fontSize=20;fontFamily=Architects Daughter;" parent="WIyWlLk6GJQsqaUBKTNV-1" vertex="1">
          <mxGeometry x="570" y="1320" width="330" height="50" as="geometry" />
        </mxCell>
        <mxCell id="qEP1fspGBnOH7kWeN9nW-49" value="delay joined result update&lt;br&gt;job" style="rounded=0;whiteSpace=wrap;html=1;sketch=0;hachureGap=4;jiggle=2;curveFitting=1;fontFamily=Architects Daughter;fontSource=https%3A%2F%2Ffonts.googleapis.com%2Fcss%3Ffamily%3DArchitects%2BDaughter;fontSize=20;" parent="WIyWlLk6GJQsqaUBKTNV-1" vertex="1">
          <mxGeometry x="1040" y="1400" width="150" height="68.5" as="geometry" />
        </mxCell>
        <mxCell id="qEP1fspGBnOH7kWeN9nW-51" value="更新delay join 结果" style="text;html=1;strokeColor=none;fillColor=none;align=center;verticalAlign=middle;whiteSpace=wrap;rounded=0;fontSize=20;fontFamily=Architects Daughter;" parent="WIyWlLk6GJQsqaUBKTNV-1" vertex="1">
          <mxGeometry x="1031" y="1340" width="210" height="30" as="geometry" />
        </mxCell>
      </root>
    </mxGraphModel>
  </diagram>
</mxfile>
